<?xml version="1.0" encoding="UTF-8"?>
<svg xmlns="http://www.w3.org/2000/svg" xmlns:xlink="http://www.w3.org/1999/xlink" width="512pt" height="512pt" viewBox="0 0 512 512" version="1.1">
<defs>
<linearGradient id="linear0" gradientUnits="userSpaceOnUse" x1="85.50267" y1="13.35938" x2="85.50267" y2="157.64063" gradientTransform="matrix(2.994152,0,0,2.994152,0,0)">
<stop offset="0" style="stop-color:rgb(10.196078%,42.745098%,100%);stop-opacity:1;"/>
<stop offset="1" style="stop-color:rgb(78.431373%,13.333333%,100%);stop-opacity:1;"/>
</linearGradient>
<linearGradient id="linear1" gradientUnits="userSpaceOnUse" x1="80.67459" y1="23.72358" x2="80.67459" y2="157.64063" gradientTransform="matrix(2.994152,0,0,2.994152,0,0)">
<stop offset="0" style="stop-color:rgb(42.745098%,78.039216%,100%);stop-opacity:1;"/>
<stop offset="1" style="stop-color:rgb(90.196078%,67.058824%,100%);stop-opacity:1;"/>
</linearGradient>
</defs>
<g id="surface1724130">
<rect x="0" y="0" width="512" height="512" style="fill:rgb(0%,0%,0%);fill-opacity:1;stroke:none;"/>
<path style=" stroke:none;fill-rule:nonzero;fill:url(#linear0);" d="M 419.183594 230.375 C 419.183594 230.375 454.734375 232.175781 454.734375 211.28125 C 454.734375 183.984375 407.398438 159.375 407.398438 159.375 C 407.398438 159.375 414.808594 143.648438 419.433594 134.871094 C 424.054688 126.089844 437.089844 91.808594 438.257812 83.984375 C 439.726562 74.144531 437.488281 71.046875 437.488281 71.046875 C 434.265625 92.144531 399.902344 152.863281 397.183594 154.945312 C 363.648438 139.238281 317.574219 134.863281 317.574219 134.863281 C 317.574219 134.863281 272.496094 40 230.089844 40 C 188.039062 40 188.246094 121.230469 188.246094 121.230469 C 188.246094 121.230469 176.367188 98.191406 161.457031 98.191406 C 139.65625 98.191406 132.503906 131.144531 132.503906 166.863281 C 89.457031 166.863281 53.230469 176.480469 49.992188 177.40625 C 46.742188 178.328125 36.558594 185.726562 41.199219 184.800781 C 50.617188 181.785156 94.855469 174.953125 133.582031 178.3125 C 135.710938 212.273438 155.550781 256.488281 155.550781 256.488281 C 155.550781 256.488281 113.007812 318.0625 113.007812 362.039062 C 113.007812 373.617188 117.34375 396.40625 147.894531 396.40625 C 173.480469 396.40625 202.921875 379.40625 208.335938 376.289062 C 203.609375 383.023438 200.121094 395.847656 200.121094 401.71875 C 200.121094 404.496094 201.191406 410.136719 205.726562 414.472656 C 212.929688 407.28125 220.054688 400.160156 228.800781 391.425781 C 219.351562 389.695312 218.070312 382.695312 218.070312 380.902344 C 218.070312 374.550781 223.046875 367.046875 223.046875 367.046875 C 223.046875 367.046875 246.03125 351.527344 247.480469 349.871094 L 264.464844 381.527344 C 264.464844 381.527344 247.078125 391.824219 233.414062 391.824219 C 231.695312 391.824219 230.175781 391.679688 228.808594 391.433594 C 220.046875 400.183594 212.929688 407.296875 205.734375 414.480469 C 209.097656 417.695312 214.320312 420.214844 222.710938 420.214844 C 248.054688 420.214844 276.359375 400.808594 276.359375 400.808594 C 276.359375 400.808594 303.089844 445.183594 325.929688 465.519531 C 332.089844 471.007812 337.976562 472 337.976562 472 C 337.976562 472 315.28125 450.160156 285.375 393.910156 C 313.160156 376.75 342.105469 336.28125 342.105469 336.28125 C 342.105469 336.28125 345.511719 336.390625 371.902344 336.390625 C 413.257812 336.390625 472 327.695312 472 294.863281 C 471.992188 260.992188 419.183594 230.375 419.183594 230.375 Z M 423.800781 209.976562 C 423.800781 221.953125 412.382812 221.816406 412.382812 221.816406 L 403.710938 222.390625 L 377.265625 209.6875 C 377.265625 209.6875 392.726562 185.871094 396.335938 179.230469 C 399.097656 180.816406 423.800781 196.257812 423.800781 209.976562 Z M 173.761719 124.9375 C 179.9375 124.9375 185.984375 132.441406 188.472656 138.800781 C 188.472656 143 190.664062 167.550781 190.664062 167.550781 L 154.976562 166.214844 C 154.984375 134.046875 167.601562 124.9375 173.761719 124.9375 Z M 170.070312 348.230469 C 150.574219 348.230469 146.542969 337.375 146.542969 327.601562 C 146.542969 305.472656 164.222656 274.527344 164.222656 274.527344 C 164.222656 274.527344 184.023438 316.152344 218.609375 333.726562 C 201.441406 343.777344 187.289062 348.230469 170.070312 348.230469 Z M 276.039062 374.550781 C 267.726562 360.015625 261.585938 344.832031 261.585938 344.832031 C 261.585938 344.832031 295.769531 347.046875 314.128906 328.070312 C 302.679688 333.222656 284.441406 339.703125 263.191406 337.753906 L 355.382812 241.113281 C 353.488281 238.839844 343.480469 231.855469 341.023438 230.679688 C 327.800781 246.574219 276.398438 301.496094 228.800781 328.679688 C 168.535156 295.839844 155.871094 199.207031 154.601562 179.136719 L 187.519531 182.289062 C 187.519531 182.289062 175.152344 204.199219 175.152344 220.328125 C 175.152344 236.457031 177.078125 237.304688 177.078125 237.304688 C 177.078125 237.304688 176.671875 209.191406 194.039062 187.480469 C 207.265625 257.878906 221.070312 293.953125 231.824219 315.441406 C 237.304688 313.167969 247.511719 308.648438 247.511719 308.648438 C 247.511719 308.648438 217.097656 221.078125 218.800781 161.808594 C 228.390625 156.6875 241.222656 151.527344 255.863281 148.816406 C 255.503906 145.023438 254.703125 141.230469 253.0625 137.441406 C 242 140.007812 230.136719 144.128906 219.015625 150.648438 C 219.992188 117.640625 231.113281 87.761719 250.769531 87.761719 C 270.199219 87.761719 297.953125 133.601562 297.953125 133.601562 C 297.953125 133.601562 277.457031 131.761719 253.0625 137.433594 C 254.703125 141.222656 255.503906 145.015625 255.863281 148.808594 C 262.289062 147.617188 269.023438 146.855469 276.046875 146.855469 C 336.6875 146.855469 385.441406 172.9375 385.441406 172.9375 L 366.359375 199.542969 C 366.359375 199.542969 349.351562 168.785156 325.359375 163.3125 C 338.023438 172.742188 352.191406 185.207031 359.558594 203.144531 C 309.304688 183.511719 248.664062 173.144531 229.207031 170.871094 C 227.511719 178.039062 227.734375 188.28125 227.734375 188.28125 C 227.734375 188.28125 309.070312 203.28125 368.257812 237.121094 C 367.863281 311.144531 287.183594 367.953125 276.039062 374.550781 Z M 353.078125 319.246094 C 353.078125 319.246094 378.34375 286.144531 377.929688 242.289062 C 377.929688 242.289062 418.71875 267.527344 418.71875 292.152344 C 418.726562 319.664062 353.078125 319.246094 353.078125 319.246094 Z M 353.078125 319.246094 "/>
<path style=" stroke:none;fill-rule:nonzero;fill:url(#linear1);" d="M 200.097656 401.71875 C 200.097656 395.847656 203.59375 383.023438 208.3125 376.289062 C 216.289062 372.273438 223.023438 367.039062 223.023438 367.039062 C 223.023438 367.039062 218.046875 374.542969 218.046875 380.894531 C 218.046875 382.695312 219.320312 389.6875 228.777344 391.414062 C 230.136719 391.664062 231.664062 391.808594 233.382812 391.808594 C 247.046875 391.808594 264.433594 381.511719 264.433594 381.511719 C 208.601562 431.511719 200.097656 402.433594 200.097656 401.71875 Z M 209.152344 314.296875 L 208.480469 314.625 L 207.671875 315.097656 C 204.503906 316.953125 201.527344 318.496094 198.632812 319.847656 C 204.609375 325.144531 211.246094 329.992188 218.609375 333.726562 C 221.785156 332.214844 226.574219 329.816406 228.816406 328.6875 C 221.585938 324.734375 215.070312 319.832031 209.152344 314.296875 Z M 152.464844 342.871094 C 147.9375 338.824219 146.550781 333.078125 146.550781 327.601562 C 146.550781 305.472656 164.230469 274.527344 164.230469 274.527344 L 155.550781 256.488281 C 155.550781 256.488281 111.785156 322.238281 152.328125 343.167969 C 152.40625 342.929688 152.367188 343.144531 152.464844 342.871094 Z M 418.007812 296.886719 C 410.929688 319.609375 353.089844 319.257812 353.089844 319.257812 L 342.097656 336.296875 C 342.097656 336.296875 345.367188 336.390625 367.753906 336.40625 C 367.742188 336.398438 413.582031 332.664062 418.007812 296.886719 Z M 366.832031 260.824219 C 366.824219 260.824219 370.574219 263.222656 375.496094 267.023438 C 377.054688 259.3125 378.015625 251.03125 377.929688 242.28125 C 375.785156 241.007812 370.320312 238.078125 368.273438 237.136719 C 368.230469 244.984375 367.113281 252.601562 365.441406 260.03125 C 365.984375 260.335938 366.503906 260.625 366.832031 260.824219 Z M 423.800781 209.976562 C 423.800781 221.953125 412.382812 221.816406 412.382812 221.816406 L 403.710938 222.390625 L 419.175781 230.375 C 469.078125 228.335938 430.710938 189.542969 396.34375 179.238281 C 399.097656 180.816406 423.800781 196.257812 423.800781 209.976562 Z M 244.695312 88.871094 C 246.632812 88.199219 248.640625 87.792969 250.777344 87.792969 C 270.207031 87.792969 297.960938 133.632812 297.960938 133.632812 L 317.585938 134.855469 C 317.585938 134.855469 313.070312 125.390625 305.609375 112.464844 C 295.328125 95.847656 263.726562 79.320312 244.695312 88.871094 Z M 171.777344 106.832031 C 152.519531 104.800781 153.078125 160.160156 154.984375 166.222656 C 154.984375 134.0625 167.601562 124.945312 173.761719 124.945312 C 179.9375 124.945312 185.984375 132.449219 188.472656 138.808594 C 188.199219 129.328125 188.230469 121.222656 188.230469 121.222656 C 188.230469 121.222656 180.550781 108.519531 171.777344 106.832031 Z M 240.632812 151.566406 C 240.742188 147.808594 241.105469 144.257812 241.519531 140.742188 C 233.992188 143.191406 226.351562 146.367188 219.023438 150.671875 C 218.839844 155.199219 219.054688 157.222656 218.808594 161.832031 C 224.863281 158.601562 232.320312 155.414062 240.59375 152.785156 C 240.609375 152.382812 240.625 152.023438 240.632812 151.566406 Z M 275.816406 374.550781 C 267.503906 360.015625 261.359375 344.832031 261.359375 344.832031 C 261.359375 344.832031 295.542969 347.046875 313.902344 328.070312 C 302.457031 333.222656 284.214844 339.703125 262.96875 337.753906 C 258.472656 342.414062 253.0625 346.015625 247.222656 349.878906 L 264.207031 381.535156 C 264.214844 381.527344 277.144531 373.761719 275.816406 374.550781 Z M 285.121094 393.929688 C 287.726562 392.320312 276.105469 400.808594 276.105469 400.808594 C 276.105469 400.808594 302.832031 445.183594 325.671875 465.519531 C 331.832031 471.007812 337.71875 472 337.71875 472 C 337.71875 472 315.023438 450.175781 285.121094 393.929688 Z M 437.503906 71.03125 C 434.28125 92.128906 399.921875 152.847656 397.199219 154.929688 C 393.847656 153.359375 407.414062 159.367188 407.414062 159.367188 C 407.414062 159.367188 414.824219 143.640625 419.449219 134.863281 C 424.070312 126.078125 437.105469 91.800781 438.273438 83.976562 C 439.726562 74.128906 437.503906 71.03125 437.503906 71.03125 Z M 385.457031 172.976562 L 366.375 199.585938 C 366.375 199.585938 349.367188 168.824219 325.375 163.351562 C 335.039062 170.550781 345.574219 179.550781 353.304688 191.367188 C 353.304688 191.328125 353.304688 191.257812 353.304688 191.207031 C 353.304688 191.265625 353.304688 191.328125 353.304688 191.367188 C 355.695312 195.03125 357.847656 198.9375 359.585938 203.175781 C 369.519531 206.960938 378.105469 210.023438 377.28125 209.6875 C 377.28125 209.6875 392.742188 185.871094 396.351562 179.230469 C 397.367188 179.824219 385.457031 172.976562 385.457031 172.976562 Z M 190.671875 167.558594 L 154.984375 166.222656 C 154.425781 169.832031 154.640625 175.457031 154.617188 179.152344 L 187.535156 182.304688 C 187.535156 182.304688 175.167969 204.214844 175.167969 220.34375 C 175.167969 236.472656 177.097656 237.320312 177.097656 237.320312 C 177.097656 237.320312 176.734375 212.351562 191.257812 191.304688 C 191.214844 191.265625 191.167969 191.25 191.136719 191.207031 C 191.175781 191.25 191.222656 191.273438 191.257812 191.304688 C 192.144531 190.015625 193.0625 188.753906 194.054688 187.503906 C 191.808594 174.777344 190.671875 167.558594 190.671875 167.558594 Z M 132.496094 166.871094 C 89.449219 166.871094 53.222656 176.488281 49.984375 177.414062 C 46.742188 178.34375 36.558594 185.742188 41.191406 184.816406 C 50.609375 181.800781 94.847656 174.96875 133.574219 178.328125 C 132.785156 171.183594 132.496094 166.871094 132.496094 166.871094 Z M 132.496094 166.871094 "/>
</g>
</svg>
