<?xml version="1.0" encoding="UTF-8"?>
<svg xmlns="http://www.w3.org/2000/svg" xmlns:xlink="http://www.w3.org/1999/xlink" width="480pt" height="480pt" viewBox="0 0 480 480" version="1.1">
<g id="surface1724333">
<rect x="0" y="0" width="480" height="480" style="fill:rgb(0%,0%,0%);fill-opacity:1;stroke:none;"/>
<path style=" stroke:none;fill-rule:nonzero;fill:rgb(100%,43.137255%,25.098039%);fill-opacity:1;" d="M 400 240.050781 C 400 240.03125 400 240.019531 400 240 L 400 239.988281 C 400 239.980469 400 239.980469 400 239.96875 C 400 239.238281 399.898438 238.519531 399.890625 237.789062 C 398.691406 150.449219 327.621094 80 240 80 C 233.519531 80 227.160156 80.5 220.878906 81.25 C 222.53125 59.359375 239.539062 35.839844 239.539062 35.839844 C 241.421875 32.050781 237.140625 28.449219 233.460938 30.628906 C 204.390625 47.730469 80 100.828125 80 239.96875 C 80 239.96875 80 239.980469 80 239.988281 L 80 240 C 80 328.359375 151.628906 400 240 400 C 246.480469 400 252.828125 399.5 259.109375 398.75 C 257.429688 420.628906 240.449219 444.089844 240.449219 444.089844 C 238.570312 447.878906 242.851562 451.480469 246.53125 449.300781 C 275.570312 432.21875 400 380.828125 400 240.050781 Z M 300 240 C 300 273.140625 273.140625 300 240 300 C 206.859375 300 180 273.140625 180 240 C 180 206.859375 206.859375 180 240 180 C 273.140625 180 300 206.859375 300 240 Z M 300 240 "/>
</g>
</svg>
